<svg width="55" height="55" viewBox="0 0 55 55" fill="none" xmlns="http://www.w3.org/2000/svg">
<circle cx="27.5" cy="27.5" r="27.5" fill="white"/>
<path d="M27.5 5C15.125 5 5 15.1431 5 27.6355C5 38.9307 13.235 48.3057 23.99 50V34.1867H18.275V27.6355H23.99V22.6431C23.99 16.9729 27.3425 13.8554 32.495 13.8554C34.9475 13.8554 37.5125 14.2846 37.5125 14.2846V19.8645H34.6775C31.8875 19.8645 31.01 21.6039 31.01 23.3886V27.6355H37.265L36.2525 34.1867H31.01V50C36.312 49.1593 41.1399 46.4432 44.6223 42.342C48.1047 38.2408 50.012 33.0248 49.9999 27.6355C49.9999 15.1431 39.875 5 27.5 5Z" fill="#2B0F66"/>
</svg>
