<svg width="55" height="55" viewBox="0 0 55 55" fill="none" xmlns="http://www.w3.org/2000/svg">
<circle cx="27.5" cy="27.5" r="27.5" fill="white"/>
<path d="M42.7778 9C43.8976 9 44.9715 9.44484 45.7633 10.2367C46.5552 11.0285 47 12.1024 47 13.2222V42.7778C47 43.8976 46.5552 44.9715 45.7633 45.7633C44.9715 46.5552 43.8976 47 42.7778 47H13.2222C12.1024 47 11.0285 46.5552 10.2367 45.7633C9.44484 44.9715 9 43.8976 9 42.7778V13.2222C9 12.1024 9.44484 11.0285 10.2367 10.2367C11.0285 9.44484 12.1024 9 13.2222 9H42.7778ZM41.7222 41.7222V30.5333C41.7222 28.7081 40.9971 26.9575 39.7065 25.6669C38.4158 24.3762 36.6653 23.6511 34.84 23.6511C33.0456 23.6511 30.9556 24.7489 29.9422 26.3956V24.0522H24.0522V41.7222H29.9422V31.3144C29.9422 29.6889 31.2511 28.3589 32.8767 28.3589C33.6605 28.3589 34.4123 28.6703 34.9666 29.2246C35.5208 29.7788 35.8322 30.5306 35.8322 31.3144V41.7222H41.7222ZM17.1911 20.7378C18.1317 20.7378 19.0339 20.3641 19.699 19.699C20.3641 19.0339 20.7378 18.1317 20.7378 17.1911C20.7378 15.2278 19.1544 13.6233 17.1911 13.6233C16.2449 13.6233 15.3374 13.9992 14.6683 14.6683C13.9992 15.3374 13.6233 16.2449 13.6233 17.1911C13.6233 19.1544 15.2278 20.7378 17.1911 20.7378ZM20.1256 41.7222V24.0522H14.2778V41.7222H20.1256Z" fill="#2B0F66"/>
</svg>
