<svg width="40" height="40" viewBox="0 0 40 40" fill="none" xmlns="http://www.w3.org/2000/svg">
<circle cx="20" cy="20" r="20" fill="white"/>
<path d="M34.909 10.8235C33.8383 11.3176 32.6841 11.6424 31.4882 11.7976C32.7119 11.0494 33.6575 9.86353 34.1025 8.43765C32.9483 9.14353 31.669 9.63765 30.3201 9.92C29.2216 8.70588 27.678 8 25.9259 8C22.658 8 19.9881 10.7106 19.9881 14.0565C19.9881 14.5365 20.0437 15.0024 20.1411 15.44C15.1906 15.1859 10.7825 12.7718 7.84836 9.11529C7.33385 10.0047 7.04182 11.0494 7.04182 12.1506C7.04182 14.2541 8.08476 16.1176 9.69783 17.1765C8.71052 17.1765 7.79274 16.8941 6.9862 16.4706C6.9862 16.4706 6.9862 16.4706 6.9862 16.5129C6.9862 19.4494 9.04426 21.9059 11.7698 22.4565C11.2692 22.5976 10.7408 22.6682 10.1984 22.6682C9.82298 22.6682 9.44753 22.6259 9.08598 22.5553C9.83689 24.9412 12.0201 26.72 14.6483 26.7624C12.618 28.4 10.0455 29.36 7.23651 29.36C6.76371 29.36 6.29091 29.3318 5.81812 29.2753C8.46022 30.9976 11.6029 32 14.9681 32C25.9259 32 31.9471 22.7671 31.9471 14.7624C31.9471 14.4941 31.9471 14.24 31.9332 13.9718C33.1013 13.1247 34.1025 12.0518 34.909 10.8235Z" fill="#2B0F66"/>
</svg>
